<svg id="Layer_1" data-name="Layer 1" xmlns="http://www.w3.org/2000/svg" viewBox="0 0 1443.22778 241.78897"><defs><style>.cls-1{fill:#abc4ff;}</style></defs><path class="cls-1" d="M140.73138,29.41333a121.46407,121.46407,0,0,0-23.148,3.91193c1.981,2.406,6.7477,7.07771,15.93746,10.44767,3.135-.516,6.319-.89938,9.551-1.12853a102.87612,102.87612,0,0,1,14.55128,205.23705q-4.09219.29013-8.12746.25733c5.151-6.83613,12.91457-15.33341,24.58017-25.68142,39.39686-34.94677,37.76419-63.24579,29.93675-84.002C196.185,117.69925,164.256,99.77355,164.256,99.77355c18.88088-29.00569,2.35687-35.31172-24.15578-45.39617-20.26515-7.708-23.374-16.84693-23.71457-20.7276A120.90868,120.90868,0,0,0,138.05439,270.377c-4.05029-2.31771-13.78353-9.56888-12.549-25.2618A102.90087,102.90087,0,0,1,117.76,47.66809c9.34727,12.05682,36.546,17.80031,40.47587,30.47345,3.03915,9.80063-10.07351,26.51187-10.07351,26.51187s35.89654,31.85182,39.71114,54.01411c3.81452,22.16235-9.26966,43.27947-36.22621,69.11891-23.68289,22.70145-14.91847,39.05959-12.44,42.69866a120.89692,120.89692,0,1,0,1.52408-241.07176Z" transform="translate(-28.38611 -29.10552)"/><path class="cls-1" d="M169.55778,159.14293a24.66857,24.66857,0,0,0-48.15268-2.73573,24.658,24.658,0,1,0-33.449,34.58925l42.97334,31.0919a1.17683,1.17683,0,0,0,.88145.21312,1.19037,1.19037,0,0,0,.78034-.474l32.54323-44.36035-.00362-.00472a24.55361,24.55361,0,0,0,4.427-18.31947Z" transform="translate(-28.38611 -29.10552)"/><path class="cls-1" d="M363.13245,152.58032a21.852,21.852,0,0,1,6,7.43994,21.6468,21.6468,0,0,1-1.01954,20.93946,22.00036,22.00036,0,0,1-9.42089,8.04,33.60564,33.60564,0,0,1-14.57911,2.94043H312.91272V108.30005h30a33.95872,33.95872,0,0,1,14.51953,2.82031,20.56211,20.56211,0,0,1,9,7.61963,19.96866,19.96866,0,0,1,3,10.80029,18.65718,18.65718,0,0,1-4.01953,12.29981,22.50813,22.50813,0,0,1-10.62012,7.02A17.68274,17.68274,0,0,1,363.13245,152.58032Zm-39.29981-8.16015H342.192q7.67871,0,11.88085-3.6001,4.19824-3.59985,4.19922-9.96,0-6.35889-4.19922-9.96-4.20263-3.59986-12.12011-3.6001H323.83264Zm32.04,34.68017q4.55859-3.83935,4.55957-10.67969a13.56743,13.56743,0,0,0-4.7998-10.98046q-4.8003-4.0188-12.83985-4.02h-18.96v29.52h19.32031Q351.31067,182.94019,355.87268,179.10034Z" transform="translate(-28.38611 -29.10552)"/><path class="cls-1" d="M397.151,108.30005V161.22q0,11.15991,5.46,16.56006,5.45947,5.40088,15.17969,5.40039,9.59911,0,15.06055-5.40039,5.45946-5.39942,5.46-16.56006V108.30005h10.91992v52.80029q0,10.43994-4.2002,17.58008A26.367,26.367,0,0,1,433.691,189.30054a38.61886,38.61886,0,0,1-32.04,0,25.99974,25.99974,0,0,1-11.28027-10.62012q-4.13966-7.13818-4.13965-17.58008V108.30005Z" transform="translate(-28.38611 -29.10552)"/><path class="cls-1" d="M511.51037,191.94019,491.59045,157.74H478.39026v34.2002H467.47034V108.30005h27q9.47754,0,16.01953,3.24023a22.57153,22.57153,0,0,1,9.78027,8.75977,25.94479,25.94479,0,0,1-1.74023,27.84033q-4.98048,6.60059-14.93946,8.75977l21,35.04Zm-33.12011-42.96h16.08008q8.87841,0,13.31933-4.37988,4.43849-4.37914,4.44043-11.70019,0-7.43922-4.37988-11.52-4.38135-4.07812-13.37988-4.08008H478.39026Z" transform="translate(-28.38611 -29.10552)"/><path class="cls-1" d="M598.98791,108.30005l-27.24023,52.08008v31.56006H560.82776V160.38013l-27.35938-52.08008H545.5885l20.63965,42.36035,20.63965-42.36035Z" transform="translate(-28.38611 -29.10552)"/><path class="cls-1" d="M692.76819,152.58032a21.85186,21.85186,0,0,1,6,7.43994,21.64683,21.64683,0,0,1-1.01953,20.93946,22.00045,22.00045,0,0,1-9.4209,8.04,33.60562,33.60562,0,0,1-14.5791,2.94043h-31.2002V108.30005h30a33.95868,33.95868,0,0,1,14.51953,2.82031,20.56211,20.56211,0,0,1,9,7.61963,19.96857,19.96857,0,0,1,3,10.80029,18.65718,18.65718,0,0,1-4.01953,12.29981,22.50813,22.50813,0,0,1-10.62012,7.02A17.68266,17.68266,0,0,1,692.76819,152.58032Zm-39.29981-8.16015h18.35938q7.67871,0,11.88086-3.6001,4.19824-3.59985,4.19922-9.96,0-6.35889-4.19922-9.96-4.20264-3.59986-12.12012-3.6001H653.46838Zm32.04,34.68017q4.55859-3.83935,4.55957-10.67969a13.5674,13.5674,0,0,0-4.7998-10.98046q-4.8003-4.0188-12.83985-4.02h-18.96v29.52H672.7887Q680.94641,182.94019,685.50842,179.10034Z" transform="translate(-28.38611 -29.10552)"/><path class="cls-1" d="M726.78674,108.30005V161.22q0,11.15991,5.46,16.56006,5.45947,5.40088,15.17969,5.40039,9.59911,0,15.06055-5.40039,5.45947-5.39942,5.46-16.56006V108.30005h10.91992v52.80029q0,10.43994-4.2002,17.58008a26.367,26.367,0,0,1-11.33984,10.62012,38.61886,38.61886,0,0,1-32.04,0,25.99974,25.99974,0,0,1-11.28027-10.62012q-4.13965-7.13818-4.13965-17.58008V108.30005Z" transform="translate(-28.38611 -29.10552)"/><path class="cls-1" d="M881.94592,108.90015v83.04H871.026V130.02026l-27.60059,61.91993h-7.67968l-27.71973-62.04v62.04H797.10608v-83.04h11.75976l30.71973,68.63964,30.7207-68.63964Z" transform="translate(-28.38611 -29.10552)"/><path class="cls-1" d="M949.20373,150.12036q-7.13964,6.90162-21.77929,6.8999H911.34436v34.91993H900.42444V108.30005h27q14.15771,0,21.54,6.84033,7.37988,6.83936,7.37988,17.63965A23.111,23.111,0,0,1,949.20373,150.12036Zm-8.33984-6.06006q4.31982-3.96019,4.32031-11.28027,0-15.47973-17.75976-15.48H911.34436v30.72021h16.08008Q936.54162,148.02026,940.86389,144.0603Z" transform="translate(-28.38611 -29.10552)"/><path class="cls-1" d="M1052.1637,152.58032a21.852,21.852,0,0,1,6,7.43994,21.6468,21.6468,0,0,1-1.01954,20.93946,22.00036,22.00036,0,0,1-9.42089,8.04,33.60564,33.60564,0,0,1-14.57911,2.94043H1001.944V108.30005h30a33.95872,33.95872,0,0,1,14.51953,2.82031,20.56211,20.56211,0,0,1,9,7.61963,19.96866,19.96866,0,0,1,3,10.80029,18.65718,18.65718,0,0,1-4.01953,12.29981,22.50813,22.50813,0,0,1-10.62012,7.02A17.68274,17.68274,0,0,1,1052.1637,152.58032Zm-39.29981-8.16015h18.35938q7.67871,0,11.88085-3.6001,4.19825-3.59985,4.19922-9.96,0-6.35889-4.19922-9.96-4.20262-3.59986-12.12011-3.6001h-18.12012Zm32.04,34.68017q4.55859-3.83935,4.55957-10.67969a13.56743,13.56743,0,0,0-4.7998-10.98046q-4.8003-4.0188-12.83985-4.02h-18.96v29.52h19.32031Q1040.34192,182.94019,1044.90393,179.10034Z" transform="translate(-28.38611 -29.10552)"/><path class="cls-1" d="M1086.18225,108.30005V161.22q0,11.15991,5.46,16.56006,5.45948,5.40088,15.17969,5.40039,9.59911,0,15.06055-5.40039,5.45946-5.39942,5.46-16.56006V108.30005h10.91992v52.80029q0,10.43994-4.2002,17.58008a26.367,26.367,0,0,1-11.33984,10.62012,38.61886,38.61886,0,0,1-32.04,0,25.99974,25.99974,0,0,1-11.28027-10.62012q-4.13966-7.13818-4.13965-17.58008V108.30005Z" transform="translate(-28.38611 -29.10552)"/><path class="cls-1" d="M1206.24182,113.40015a35.86734,35.86734,0,0,1,15.35938,14.58007q5.33788,9.48121,5.33984,22.31983,0,12.84228-5.33984,22.26025a35.21,35.21,0,0,1-15.35938,14.39942q-10.021,4.98194-23.7002,4.98047h-26.04V108.30005h26.04Q1196.2218,108.30005,1206.24182,113.40015Zm1.01953,60.96q8.51953-8.57812,8.51953-24.06006,0-15.59766-8.5791-24.35986-8.58105-8.75831-24.66016-8.75977h-15.12011v65.75977h15.12011Q1198.74134,182.94019,1207.26135,174.36011Z" transform="translate(-28.38611 -29.10552)"/><path class="cls-1" d="M1291.07971,113.40015a35.86734,35.86734,0,0,1,15.35938,14.58007q5.33788,9.48121,5.33984,22.31983,0,12.84228-5.33984,22.26025a35.21,35.21,0,0,1-15.35938,14.39942q-10.021,4.98194-23.70019,4.98047h-26.04V108.30005h26.04Q1281.05969,108.30005,1291.07971,113.40015Zm1.01953,60.96q8.51953-8.57812,8.51953-24.06006,0-15.59766-8.5791-24.35986-8.581-8.75831-24.66015-8.75977H1252.2594v65.75977h15.12012Q1283.57922,182.94019,1292.09924,174.36011Z" transform="translate(-28.38611 -29.10552)"/><path class="cls-1" d="M1337.09827,108.30005v83.64014h-10.91993V108.30005Z" transform="translate(-28.38611 -29.10552)"/><path class="cls-1" d="M1366.61682,117.18042v27.96h30.47949v9h-30.47949v28.79981h34.08008v9h-45V108.18042h45v9Z" transform="translate(-28.38611 -29.10552)"/><path class="cls-1" d="M1428.95471,189.84058a24.69054,24.69054,0,0,1-10.26074-8.16016,20.89843,20.89843,0,0,1-3.83985-12.06055h11.64063a15.31369,15.31369,0,0,0,4.85937,9.90039q4.25831,4.02246,12.41993,4.01953,7.79883,0,12.2998-3.89941a12.65516,12.65516,0,0,0,4.5-10.02051,11.38294,11.38294,0,0,0-2.63965-7.7998,16.89826,16.89826,0,0,0-6.59961-4.56006,103.63791,103.63791,0,0,0-10.68066-3.35986,94.0472,94.0472,0,0,1-13.25977-4.31983,21.33613,21.33613,0,0,1-8.51953-6.78027q-3.542-4.61791-3.54-12.41992a21.51406,21.51406,0,0,1,3.4795-12.12012,22.67162,22.67162,0,0,1,9.78027-8.15967,34.43073,34.43073,0,0,1,14.46-2.88037q11.75831,0,19.25977,5.88037a21.72683,21.72683,0,0,1,8.46,15.59961h-12a12.96089,12.96089,0,0,0-5.04-8.46q-4.43994-3.65844-11.75977-3.65967-6.83936,0-11.16015,3.54-4.31984,3.54053-4.31934,9.8999a10.72268,10.72268,0,0,0,2.5791,7.43995,16.63076,16.63076,0,0,0,6.36035,4.37988q3.78077,1.50219,10.62012,3.41992a100.08076,100.08076,0,0,1,13.32031,4.5,22.246,22.246,0,0,1,8.63965,6.84033q3.60058,4.62086,3.59961,12.54a22.024,22.024,0,0,1-3.23926,11.51953,23.81553,23.81553,0,0,1-9.60058,8.76074,31.681,31.681,0,0,1-15,3.35938A35.7558,35.7558,0,0,1,1428.95471,189.84058Z" transform="translate(-28.38611 -29.10552)"/></svg>